<svg
  width="160"
  height="120"
  viewBox="0 0 160 120"
  fill="none"
  xmlns="http://www.w3.org/2000/svg"
>
  <rect
    x="0.5"
    y="0.5"
    width="159"
    height="119"
    rx="11.5"
    fill="hsl(var(--background))"
    stroke="hsl(var(--border))"
  ></rect>
  <path
    class="highlight"
    d="M21.664 26.735C21.909 26.908 22.201 27 22.5 26.999V26.995C22.7823 26.9955 23.0584 26.9131 23.2943 26.7581C23.5302 26.6031 23.7154 26.3823 23.827 26.123L24.44 24.259C24.5816 23.8368 24.8195 23.4533 25.1349 23.1388C25.4502 22.8243 25.8344 22.5875 26.257 22.447L28.035 21.869C28.3214 21.7684 28.5688 21.58 28.7419 21.3307C28.9151 21.0813 29.0052 20.7837 28.9994 20.4802C28.9937 20.1767 28.8923 19.8827 28.7098 19.6402C28.5274 19.3976 28.273 19.2187 27.983 19.129L26.228 18.559C25.8034 18.4178 25.4177 18.1795 25.1014 17.863C24.7851 17.5466 24.547 17.1607 24.406 16.736L23.828 14.959C23.7272 14.676 23.5407 14.4314 23.2945 14.2592C23.0483 14.087 22.7546 13.9958 22.4542 13.9982C22.1537 14.0006 21.8615 14.0966 21.6181 14.2727C21.3747 14.4488 21.1922 14.6964 21.096 14.981L20.513 16.773C20.3724 17.1853 20.1401 17.5602 19.8334 17.8696C19.5268 18.179 19.154 18.4147 18.743 18.559L16.966 19.13C16.6811 19.2289 16.4344 19.4145 16.2604 19.6608C16.0864 19.907 15.9938 20.2016 15.9957 20.5031C15.9976 20.8046 16.0938 21.098 16.2708 21.3421C16.4479 21.5861 16.6969 21.7687 16.983 21.864L18.737 22.433C19.1615 22.5753 19.5471 22.8143 19.8633 23.1312C20.1795 23.4481 20.4177 23.8342 20.559 24.259L21.137 26.034C21.236 26.317 21.42 26.563 21.664 26.735ZM21.29 22.485C21.1785 22.3393 21.0572 22.2013 20.927 22.072H20.93C20.4471 21.5888 19.8582 21.2248 19.21 21.009L17.61 20.501L19.221 19.977C19.8585 19.7563 20.4368 19.3919 20.911 18.912C21.3832 18.4291 21.7392 17.845 21.952 17.204L22.467 15.622L22.983 17.209C23.1983 17.856 23.5619 18.4437 24.0448 18.9252C24.5276 19.4066 25.1164 19.7686 25.764 19.982L27.384 20.504L25.794 21.019C25.1477 21.2339 24.5604 21.5967 24.0788 22.0784C23.5972 22.5602 23.2347 23.1476 23.02 23.794L22.505 25.376L21.99 23.791C21.8327 23.319 21.596 22.8773 21.29 22.485ZM29.331 31.782C29.1405 31.6462 28.9971 31.4543 28.921 31.233L28.593 30.226C28.5299 30.0343 28.4228 29.86 28.2802 29.717C28.1376 29.5741 27.9636 29.4666 27.772 29.403L26.781 29.08C26.5541 29.0035 26.3569 28.8579 26.2169 28.6637C26.0768 28.4695 26.001 28.2364 26 27.997C26.0002 27.7592 26.0745 27.5273 26.2127 27.3337C26.3509 27.1401 26.5461 26.9944 26.771 26.917L27.777 26.591C27.964 26.5246 28.1333 26.4163 28.272 26.2743C28.4107 26.1324 28.515 25.9605 28.577 25.772L28.901 24.78C28.9772 24.5558 29.1212 24.3608 29.3131 24.2219C29.505 24.0831 29.7352 24.0072 29.9721 24.0049C30.2089 24.0026 30.4406 24.0739 30.6351 24.209C30.8297 24.3441 30.9774 24.5363 31.058 24.759L31.387 25.773C31.4514 25.9631 31.559 26.1357 31.7012 26.2772C31.8435 26.4188 32.0166 26.5255 32.207 26.589L33.199 26.912C33.4277 26.9835 33.628 27.1252 33.7717 27.317C33.9153 27.5088 33.9949 27.7409 33.9992 27.9804C34.0036 28.22 33.9324 28.4548 33.7957 28.6517C33.6591 28.8485 33.464 28.9973 33.238 29.077L32.224 29.406C32.0333 29.4704 31.8602 29.5781 31.7183 29.7207C31.5763 29.8634 31.4694 30.037 31.406 30.228L31.084 31.217C31.006 31.447 30.858 31.647 30.659 31.787C30.4649 31.925 30.2324 31.9987 29.9942 31.9979C29.756 31.997 29.5241 31.9215 29.331 31.782ZM28.301 27.999C28.694 28.1387 29.0506 28.3648 29.3446 28.6605C29.6386 28.9563 29.8626 29.3142 30 29.708C30.139 29.316 30.3637 28.9599 30.6578 28.6658C30.9519 28.3717 31.308 28.147 31.7 28.008C31.3045 27.8693 30.945 27.6439 30.6477 27.3484C30.3505 27.0529 30.123 26.6947 29.982 26.3C29.8442 26.6898 29.6219 27.0443 29.3312 27.3382C29.0404 27.6321 28.6883 27.8581 28.3 28L28.301 27.999Z"
    fill="#5F687B"
  ></path>
  <rect
    x="33"
    y="45"
    width="73"
    height="7.44828"
    rx="2"
    fill="#5F687B"
    fill-opacity="0.3"
  ></rect>
  <rect
    x="33"
    y="55.5518"
    width="40.5556"
    height="7.44828"
    rx="2"
    fill="#5F687B"
    fill-opacity="0.3"
  ></rect>
  <path
    d="M25.579 47.3732C25.579 47.7007 25.3536 47.9665 25.0759 47.9665H21.7215C20.8896 47.9665 20.212 48.7647 20.212 49.7464V60.1796L22.0368 58.0279C22.2333 57.7962 22.552 57.7962 22.7486 58.0279C22.9452 58.2597 22.9452 58.6355 22.7486 58.8673L20.0651 62.0315C20.0188 62.0861 19.9632 62.1295 19.9021 62.1596C19.8411 62.1896 19.7752 62.2055 19.7095 62.2055C19.6437 62.2055 19.5788 62.1896 19.517 62.1596C19.4553 62.1295 19.4002 62.0861 19.3539 62.0315L16.6704 58.8673C16.4738 58.6355 16.4738 58.2597 16.6704 58.0279C16.8669 57.7962 17.1856 57.7962 17.3822 58.0279L19.207 60.1796V49.7464C19.207 48.1105 20.3361 46.7799 21.7228 46.7799H25.0772C25.3536 46.7799 25.579 47.0457 25.579 47.3732Z"
    fill="#5F687B"
    fill-opacity="0.3"
  ></path>
  <rect
    x="33"
    y="71"
    width="73"
    height="7.44828"
    rx="2"
    fill="#5F687B"
    fill-opacity="0.3"
  ></rect>
  <rect
    x="33"
    y="81.5517"
    width="40.5556"
    height="7.44828"
    rx="2"
    fill="#5F687B"
    fill-opacity="0.3"
  ></rect>
  <path
    d="M25.579 86.6268C25.579 86.2993 25.3536 86.0335 25.0759 86.0335H21.7215C20.8896 86.0335 20.212 85.2353 20.212 84.2536V73.8204L22.0368 75.9721C22.2333 76.2038 22.552 76.2038 22.7486 75.9721C22.9452 75.7403 22.9452 75.3645 22.7486 75.1327L20.0651 71.9685C20.0188 71.9139 19.9632 71.8705 19.9021 71.8404C19.8411 71.8104 19.7752 71.7945 19.7095 71.7945C19.6437 71.7945 19.5788 71.8104 19.517 71.8404C19.4553 71.8705 19.4002 71.9139 19.3539 71.9685L16.6704 75.1327C16.4738 75.3645 16.4738 75.7403 16.6704 75.9721C16.8669 76.2038 17.1856 76.2038 17.3822 75.9721L19.207 73.8204V84.2536C19.207 85.8895 20.3361 87.2201 21.7228 87.2201H25.0772C25.3536 87.2201 25.579 86.9543 25.579 86.6268Z"
    fill="#5F687B"
    fill-opacity="0.3"
  ></path>
  <rect
    x="46"
    y="18"
    width="89"
    height="10"
    rx="2"
    fill="#5F687B"
    fill-opacity="0.3"
  ></rect>
</svg>
