<svg
  width="160"
  height="120"
  viewBox="0 0 160 120"
  fill="none"
  xmlns="http://www.w3.org/2000/svg"
>
  <rect
    x="0.5"
    y="0.5"
    width="159"
    height="119"
    rx="11.5"
    fill="#13151A"
    stroke="#2A3142"></rect>
  <rect
    x="17"
    y="39"
    width="102"
    height="7"
    rx="2"
    fill="#5F687B"
    fill-opacity="0.3"></rect>
  <rect
    x="17"
    y="50"
    width="58"
    height="7"
    rx="2"
    fill="#5F687B"
    fill-opacity="0.1"></rect>
  <rect
    x="17"
    y="63"
    width="102"
    height="7"
    rx="2"
    fill="#5F687B"
    fill-opacity="0.3"></rect>
  <rect
    x="17"
    y="74"
    width="58"
    height="7"
    rx="2"
    fill="#5F687B"
    fill-opacity="0.1"></rect>
  <rect
    x="17"
    y="88"
    width="102"
    height="7"
    rx="2"
    fill="#5F687B"
    fill-opacity="0.3"></rect>
  <rect
    x="17"
    y="99"
    width="58"
    height="7"
    rx="2"
    fill="#5F687B"
    fill-opacity="0.1"></rect>
  <path
    class="highlight"
    d="M24.53 19.53L21.06 23L24.53 26.47C24.823 26.763 24.823 27.238 24.53 27.531C24.384 27.677 24.192 27.751 24 27.751C23.808 27.751 23.616 27.678 23.47 27.531L19.47 23.531C19.177 23.238 19.177 22.763 19.47 22.47L23.47 18.47C23.763 18.177 24.238 18.177 24.531 18.47C24.823 18.762 24.823 19.238 24.53 19.53ZM38.53 22.47L34.53 18.47C34.237 18.177 33.762 18.177 33.469 18.47C33.176 18.763 33.176 19.238 33.469 19.531L36.939 23.001L33.469 26.471C33.176 26.764 33.176 27.239 33.469 27.532C33.615 27.678 33.807 27.752 33.999 27.752C34.191 27.752 34.383 27.679 34.529 27.532L38.529 23.532C38.823 23.238 38.823 22.762 38.53 22.47ZM32.263 14.298C31.877 14.151 31.443 14.349 31.298 14.737L25.298 30.737C25.152 31.125 25.349 31.557 25.737 31.703C25.823 31.736 25.913 31.751 26 31.751C26.304 31.751 26.589 31.565 26.702 31.264L32.702 15.264C32.848 14.875 32.651 14.443 32.263 14.298Z"
    fill="#5F687B"></path>
  <rect
    x="46"
    y="18"
    width="85"
    height="10"
    rx="2"
    fill="#5F687B"
    fill-opacity="0.3"></rect>
</svg>
