<svg
  width="160"
  height="120"
  viewBox="0 0 160 120"
  fill="none"
  xmlns="http://www.w3.org/2000/svg"
>
  <rect
    x="0.5"
    y="0.5"
    width="159"
    height="119"
    rx="11.5"
    fill="hsl(var(--background))"
    stroke="hsl(var(--border))"
  ></rect>
  <rect
    x="38"
    y="24"
    width="17.4092"
    height="20.891"
    rx="2"
    fill="#5F687B"
    fill-opacity="0.3"
  ></rect>
  <rect
    x="38"
    y="49.5334"
    width="17.4092"
    height="20.891"
    rx="2"
    fill="#5F687B"
    fill-opacity="0.3"
  ></rect>
  <rect
    x="38"
    y="75.067"
    width="17.4092"
    height="20.891"
    rx="2"
    fill="#5F687B"
    fill-opacity="0.3"
  ></rect>
  <rect
    x="60.0516"
    y="24"
    width="17.4092"
    height="20.891"
    rx="2"
    fill="#5F687B"
    fill-opacity="0.3"
  ></rect>
  <rect
    x="60.0516"
    y="49.5334"
    width="17.4092"
    height="20.891"
    rx="2"
    fill="#5F687B"
    fill-opacity="0.3"
  ></rect>
  <rect
    x="60.0516"
    y="75.067"
    width="17.4092"
    height="20.891"
    rx="2"
    fill="#5F687B"
    fill-opacity="0.3"
  ></rect>
  <rect
    x="82.1033"
    y="24"
    width="17.4092"
    height="20.891"
    rx="2"
    fill="#5F687B"
    fill-opacity="0.3"
  ></rect>
  <rect
    x="82.1033"
    y="49.5334"
    width="17.4092"
    height="20.891"
    rx="2"
    fill="#5F687B"
    fill-opacity="0.3"
  ></rect>
  <rect
    x="82.1033"
    y="75.067"
    width="17.4092"
    height="20.891"
    rx="2"
    fill="#5F687B"
    fill-opacity="0.3"
  ></rect>
  <rect
    x="104.155"
    y="24"
    width="17.4092"
    height="20.891"
    rx="2"
    fill="#5F687B"
    fill-opacity="0.3"
  ></rect>
  <rect
    x="104.155"
    y="49.5334"
    width="17.4092"
    height="20.891"
    rx="2"
    fill="#5F687B"
    fill-opacity="0.3"
  ></rect>
  <rect
    x="104.155"
    y="75.067"
    width="17.4092"
    height="20.891"
    rx="2"
    fill="#5F687B"
    fill-opacity="0.3"
  ></rect>
  <rect
    x="49.6061"
    y="36.7667"
    width="17.4092"
    height="20.891"
    rx="2"
    class="highlight"
    fill="#5F687B"
  ></rect>
  <rect
    x="49.6061"
    y="62.3002"
    width="17.4092"
    height="20.891"
    rx="2"
    class="highlight"
    fill="#5F687B"
  ></rect>
  <rect
    x="71.6578"
    y="36.7667"
    width="17.4092"
    height="20.891"
    rx="2"
    class="highlight"
    fill="#5F687B"
  ></rect>
  <rect
    x="93.7094"
    y="36.7667"
    width="17.4092"
    height="20.891"
    rx="2"
    class="highlight"
    fill="#5F687B"
  ></rect>
  <rect
    x="71.6578"
    y="62.3002"
    width="17.4092"
    height="20.891"
    rx="2"
    class="highlight"
    fill="#5F687B"
  ></rect>
  <rect
    x="93.7094"
    y="62.3002"
    width="17.4092"
    height="20.891"
    rx="2"
    class="highlight"
    fill="#5F687B"
  ></rect>
</svg>
