<svg
  width="160"
  height="120"
  viewBox="0 0 160 120"
  fill="none"
  xmlns="http://www.w3.org/2000/svg"
>
  <rect
    x="0.5"
    y="0.5"
    width="159"
    height="119"
    rx="11.5"
    fill="var(--background)"
    stroke="var(--border)"
  ></rect>
  <rect
    x="17"
    y="39"
    width="102"
    height="7"
    rx="2"
    fill="#5F687B"
    fill-opacity="0.3"
  ></rect>
  <rect
    x="17"
    y="50"
    width="58"
    height="7"
    rx="2"
    fill="#5F687B"
    fill-opacity="0.1"
  ></rect>
  <rect
    width="102"
    height="7"
    rx="2"
    transform="matrix(-1 0 0 1 119 63)"
    fill="#5F687B"
    fill-opacity="0.3"
  ></rect>
  <rect
    width="58"
    height="7"
    rx="2"
    transform="matrix(-1 0 0 1 119 74)"
    fill="#5F687B"
    fill-opacity="0.1"
  ></rect>
  <rect
    x="17"
    y="88"
    width="102"
    height="7"
    rx="2"
    fill="#5F687B"
    fill-opacity="0.3"
  ></rect>
  <rect
    x="17"
    y="99"
    width="58"
    height="7"
    rx="2"
    fill="#5F687B"
    fill-opacity="0.1"
  ></rect>
  <rect
    x="46"
    y="18"
    width="45.6315"
    height="10"
    rx="2"
    fill="#5F687B"
    fill-opacity="0.3"
  ></rect>
  <path
    class="highlight"
    fill-rule="evenodd"
    clip-rule="evenodd"
    d="M28.9999 12.6955C23.6199 12.6955 19.2499 17.0655 19.2499 22.4455C19.2499 24.0855 19.67 25.6955 20.45 27.1355L18.9099 32.5355L24.3099 30.9955C25.7499 31.7855 27.3599 32.1955 28.9999 32.1955C34.3799 32.1955 38.7499 27.8255 38.7499 22.4455C38.7499 17.0655 34.3799 12.6955 28.9999 12.6955ZM28.9999 30.6955C27.5199 30.6955 26.0699 30.2955 24.7899 29.5455L24.51 29.3755L21.09 30.3555L22.07 26.9355L21.9099 26.6555C21.1499 25.3855 20.7499 23.9255 20.7499 22.4455C20.7499 17.8955 24.4499 14.1955 28.9999 14.1955C33.5499 14.1955 37.2499 17.8955 37.2499 22.4455C37.2499 26.9955 33.5499 30.6955 28.9999 30.6955ZM33.9699 24.7055C34.0299 24.8055 34.03 25.3055 33.83 25.8855C33.62 26.4755 32.6199 27.0155 32.1699 27.0655C31.7199 27.1155 31.2999 27.2755 29.2199 26.4555C26.7199 25.4555 25.13 22.8755 25.01 22.7155C24.89 22.5555 24.01 21.3755 24.01 20.1555C24.01 18.9355 24.6399 18.3455 24.8699 18.0855C25.0999 17.8355 25.37 17.7755 25.53 17.7755C25.7 17.7755 25.86 17.7755 26.01 17.7855C26.18 17.7855 26.3799 17.7855 26.5599 18.2055C26.7799 18.6955 27.2499 19.9155 27.3099 20.0255C27.3699 20.1455 27.41 20.2955 27.33 20.4555C27.24 20.6155 27.2 20.7255 27.08 20.8655C26.96 21.0055 26.82 21.1855 26.71 21.2955C26.58 21.4155 26.4599 21.5455 26.5999 21.7955C26.7499 22.0355 27.2399 22.8555 27.9699 23.5055C28.9099 24.3555 29.7 24.6155 29.95 24.7355C30.19 24.8555 30.3399 24.8355 30.4799 24.6755C30.6299 24.5155 31.0999 23.9555 31.2599 23.7055C31.4199 23.4655 31.5799 23.5055 31.8099 23.5855C32.0399 23.6655 33.2399 24.2755 33.4899 24.3955C33.7299 24.5255 33.9 24.5855 33.96 24.6855L33.9699 24.7055Z"
    fill="#5F687B"
  ></path>
</svg>
