<svg width="24" height="24" viewBox="0 0 24 24" fill="none" role="img">
  <path
    d="M7.03999 21H3.25V9.63002H7.03999V21ZM7.42 5.21002C7.42 4.01002 6.47 3.04001 5.27 3.00001C4.05 2.97001 3.03 3.93001 3 5.15001C2.97 6.37001 3.92999 7.39001 5.14999 7.42001C6.38999 7.43001 7.4 6.45002 7.42 5.21002ZM20.95 14.13C20.95 10.59 18.66 9.51001 16.71 9.51001C15.34 9.47001 14.05 10.14 13.3 11.28V9.64001H9.64V21.01H13.43V15.11C13.43 15.05 13.43 14.99 13.43 14.93C13.43 14.93 13.43 14.93 13.43 14.92C13.35 13.71 14.27 12.66 15.48 12.58C16.47 12.58 17.22 13.22 17.22 15.02V21.01H21.01L20.96 14.14L20.95 14.13Z"
    fill="currentColor"
  ></path>
</svg>
