<svg width="24" height="24" viewBox="0 0 24 24" fill="none">
  <path
    opacity="0.4"
    fill-rule="evenodd"
    clip-rule="evenodd"
    d="M21 18V11.651C21 9.65302 20.4769 9.34608 19.5699 8.58608L13.606 3.58498C12.677 2.80598 11.3219 2.80598 10.3929 3.58498L4.42896 8.58608C3.52296 9.34608 2.99902 9.65302 2.99902 11.651V18C2.99902 20 3.99902 21 5.99902 21H17.999C20 21 21 20 21 18Z"
    fill="currentColor"
  />
  <path
    d="M9.84998 10.65C9.84998 9.46402 10.815 8.5 12 8.5C13.185 8.5 14.15 9.46402 14.15 10.65C14.15 11.836 13.185 12.8 12 12.8C10.815 12.8 9.84998 11.835 9.84998 10.65ZM12.642 14H11.359C9.48201 14 8.50098 15.356 8.50098 16.697V17C8.50098 17.276 8.72498 17.5 9.00098 17.5H15.001C15.277 17.5 15.501 17.276 15.501 17V16.697C15.5 15.356 14.519 14 12.642 14Z"
    fill="currentColor"
  />
</svg>
