<svg
  width="513"
  height="513"
  viewBox="0 0 513 513"
  fill="none"
  xmlns="http://www.w3.org/2000/svg"
>
  <circle cx="256.895" cy="256.415" r="256" fill="#F2CE0C" />
  <path
    d="M234.581 379.065C219.98 379.065 206.547 376.437 194.282 371.18C182.309 365.632 172.673 357.747 165.372 347.526C158.071 337.306 154.421 325.333 154.421 311.608C154.421 292.918 160.554 278.025 172.819 266.928C185.083 255.539 202.459 247.509 224.945 242.836L297.658 227.505C297.658 211.736 294.154 199.909 287.145 192.025C280.137 184.14 269.916 180.198 256.483 180.198C243.634 180.198 233.559 182.972 226.259 188.52C218.958 194.069 214.14 202.391 211.804 213.488L158.363 209.984C162.744 186.622 173.549 168.079 190.778 154.354C208.007 140.629 229.909 133.766 256.483 133.766C286.269 133.766 309.193 142.235 325.254 159.172C341.608 176.109 349.784 200.055 349.784 231.01V313.798C349.784 319.638 350.806 323.727 352.85 326.063C355.187 328.107 359.129 329.129 364.677 329.129H376.942V373.809C370.81 374.977 363.655 375.561 355.479 375.561C338.249 375.561 325.108 371.18 316.056 362.42C307.295 353.367 302.623 340.226 302.038 322.997H308.609C306.565 339.058 298.534 352.491 284.517 363.296C270.792 373.809 254.147 379.065 234.581 379.065ZM241.152 335.262C252.833 335.262 262.907 333.217 271.376 329.129C279.845 324.749 286.269 318.762 290.65 311.17C295.322 303.285 297.658 294.086 297.658 283.574V267.366L239.4 279.193C228.595 281.237 220.71 284.742 215.746 289.706C211.074 294.378 208.737 300.511 208.737 308.103C208.737 316.572 211.512 323.289 217.06 328.253C222.608 332.925 230.639 335.262 241.152 335.262Z"
    fill="#191919"
  />
</svg>
